<?xml version="1.0" ?><!DOCTYPE svg  PUBLIC '-//W3C//DTD SVG 1.1//EN'  'http://www.w3.org/Graphics/SVG/1.1/DTD/svg11.dtd'><svg height="307.000" viewBox="-59.000 -153.000 186.000 307.000" width="186.000" xmlns="http://www.w3.org/2000/svg"><polyline fill="none" points="0.0,-0.0 110.0,-0.0 81.0,-0.0 114.991869381,104.616216792 106.030376544,77.0355778199 17.0385071631,141.691955572 40.5,124.646183256 -48.4918693812,59.9898055034 -25.0303765444,77.0355778199 8.96149283687,-27.5806389726 -1.06581410364e-14,-0.0 110.0,-2.44249065418e-14 81.0,-1.79856129989e-14 114.991869381,-104.616216792 106.030376544,-77.0355778199 17.0385071631,-141.691955572 40.5,-124.646183256 -48.4918693812,-59.9898055034 -25.0303765444,-77.0355778199 8.96149283687,27.5806389726 -1.06581410364e-14,7.1054273576e-15" stroke="#000" stroke-linecap="round" stroke-linejoin="round"/><line fill="none" stroke="none" stroke-linecap="round" x1="0.0" x2="0.0" y1="0.0" y2="0.0"/><polygon fill="#000" fill-rule="evenodd" points="-1.06581410364e-14,7.1054273576e-15 -9.0,-5.0 -7.0,7.88258347484e-15 -9.0,5.0" stroke="#000" stroke-linejoin="round"/></svg>