<?xml version="1.0" ?><!DOCTYPE svg  PUBLIC '-//W3C//DTD SVG 1.1//EN'  'http://www.w3.org/Graphics/SVG/1.1/DTD/svg11.dtd'><svg height="283.000" viewBox="-66.000 -247.000 283.000 283.000" width="283.000" xmlns="http://www.w3.org/2000/svg"><polyline fill="none" points="0.0,-0.0 150.0,-0.0 199.853219922,-141.473165171 82.9911337431,-235.511736055 -44.5414366163,-156.546911623 -12.4514741354,-10.0196639593 136.411602315,8.41357964044 203.272355682,-125.860914063 98.8522637875,-233.547702522 -37.4175269855,-170.853650789 -23.577273066,-21.4935243452 121.892267339,15.093533671 204.747013283,-109.946824112 114.351817826,-229.649408204 -28.5894822376,-184.176507087 -33.208741021,-34.2476491302 106.66209339,19.9386007979 204.25483842,-93.9721367003 129.25483842,-223.875947268 -18.1911265323,-196.313519596 -41.1998747641,-48.0886987833 90.9519543787,22.8753347421 201.803291962,-78.1790118049 143.335410968,-216.314839497 -6.38008834262,-207.080703577 -47.4295368534,-62.8068571006 75.0,23.8592176106 197.429536853,-62.8068571006 156.380088343,-207.080703577 6.66458903206,-216.314839497 -51.8032919618,-78.1790118049 59.0480456213,22.8753347421 191.199874764,-48.0886987833 168.191126532,-196.313519596 20.7451615797,-223.875947268 -54.2548384203,-93.9721367003 43.3379066104,19.9386007979 183.208741021,-34.2476491302 178.589482238,-184.176507087 35.6481821735,-229.649408204 -54.7470132834,-109.946824112 28.1077326607,15.093533671 173.577273066,-21.4935243452" stroke="#000" stroke-linecap="round" stroke-linejoin="round"/><polyline fill="none" points="173.577273066,-21.4935243452 187.417526985,-170.853650789 51.1477362125,-233.547702522 -53.2723556819,-125.860914063 13.5883976846,8.41357964044 162.451474135,-10.0196639593 194.541436616,-156.546911623 67.0088662569,-235.511736055 -49.8532199219,-141.473165171 1.05870867628e-12,9.37916411203e-13 150.0,-8.35664870635e-13 199.853219922,-141.473165171 82.9911337431,-235.511736055 -44.5414366163,-156.546911623" stroke="#000" stroke-linecap="round" stroke-linejoin="round"/><line fill="none" stroke="none" stroke-linecap="round" x1="0.0" x2="0.0" y1="0.0" y2="0.0"/><polygon fill="#000" fill-rule="evenodd" points="-44.5414366163,-156.546911623 -41.5825927764,-166.408211899 -46.0389681988,-163.384849848 -51.351075954,-164.268881067" stroke="#000" stroke-linejoin="round"/></svg>