<?xml version="1.0" ?><!DOCTYPE svg  PUBLIC '-//W3C//DTD SVG 1.1//EN'  'http://www.w3.org/Graphics/SVG/1.1/DTD/svg11.dtd'><svg height="108.000" viewBox="-16.000 -61.000 110.000 108.000" width="110.000" xmlns="http://www.w3.org/2000/svg"><polyline fill="none" points="0.0,-0.0 75.0,-0.0 6.20915238709,-29.8800817385 57.4006381285,24.9326155824 32.2846672157,-45.7369535765 27.1664862133,29.0882041128 61.6713640432,-37.5031872674 3.49301724032,9.82840855705 75.7118137914,-10.4063492797 1.41036783868,-20.6188479619 65.4918231797,18.3499482907 22.2407990211,-42.9227936851 37.5,30.5085128911 52.7592009789,-42.9227936851 9.50817682033,18.3499482907 73.5896321613,-20.6188479619 -0.711813791406,-10.4063492797 71.5069827597,9.82840855705 13.3286359568,-37.5031872674 47.8335137867,29.0882041128 42.7153327843,-45.7369535765 17.5993618715,24.9326155824 68.7908476129,-29.8800817385 -1.42108547152e-14,3.90798504668e-14 75.0,-8.58202398035e-14 6.20915238709,-29.8800817385 57.4006381285,24.9326155824 32.2846672157,-45.7369535765 27.1664862133,29.0882041128 61.6713640432,-37.5031872674 3.49301724032,9.82840855705 75.7118137914,-10.4063492797 1.41036783868,-20.6188479619 65.4918231797,18.3499482907 22.2407990211,-42.9227936851 37.5,30.5085128911 52.7592009789,-42.9227936851 9.50817682033,18.3499482907 73.5896321613,-20.6188479619 -0.711813791406,-10.4063492797 71.5069827597,9.82840855705" stroke="#a020f0" stroke-linecap="round" stroke-linejoin="round" stroke-width="5.0"/><line fill="none" stroke="none" stroke-linecap="round" stroke-width="5.0" x1="0.0" x2="0.0" y1="0.0" y2="0.0"/><polygon fill="#a020f0" fill-rule="evenodd" points="71.5069827597,9.82840855705 75.3329446544,19.3867565095 76.9369617946,14.2460241673 81.6438240976,11.6296436025" stroke="#a020f0" stroke-linejoin="round"/></svg>