<?xml version="1.0" ?><!DOCTYPE svg  PUBLIC '-//W3C//DTD SVG 1.1//EN'  'http://www.w3.org/Graphics/SVG/1.1/DTD/svg11.dtd'><svg height="543.000" viewBox="-311.000 -271.000 548.000 543.000" width="548.000" xmlns="http://www.w3.org/2000/svg"><polyline fill="none" points="0.0,-0.0 150.0,-0.0 225.0,-129.903810568 150.0,-259.807621135 2.84217094304e-14,-259.807621135 -75.0,-129.903810568 -1.27897692437e-13,-5.68434188608e-14 150.0,7.63833440942e-14 225.0,129.903810568 150.0,259.807621135 -3.41060513165e-13,259.807621135 -75.0,129.903810568 -2.27373675443e-13,2.84217094304e-14 -75.0,-129.903810568 -225.0,-129.903810568 -300.0,-1.42108547152e-13 -225.0,129.903810568 -75.0,129.903810568 -2.13162820728e-13,1.42108547152e-13" stroke="#000" stroke-linecap="round" stroke-linejoin="round"/><line fill="none" stroke="none" stroke-linecap="round" x1="0.0" x2="0.0" y1="0.0" y2="0.0"/><polygon fill="#000" fill-rule="evenodd" points="-2.13162820728e-13,1.42108547152e-13 0.169872981078,10.2942286341 3.5,6.06217782649 8.83012701892,5.29422863406" stroke="#000" stroke-linejoin="round"/></svg>