<?xml version="1.0" ?><!DOCTYPE svg  PUBLIC '-//W3C//DTD SVG 1.1//EN'  'http://www.w3.org/Graphics/SVG/1.1/DTD/svg11.dtd'><svg height="243.000" viewBox="-21.000 -168.000 243.000 243.000" width="243.000" xmlns="http://www.w3.org/2000/svg"><polygon fill="#ffa500" fill-rule="evenodd" points="0.0,-0.0 200.0,-0.0 71.4424780627,-153.208888624 36.7128425293,43.7526619786 209.917923286,-56.2473380214 21.979399129,-124.651366686 90.3834277941,63.2871574707 190.383427794,-109.917923286 -6.5781228083,-75.1882877528 146.630765815,53.3692341845 146.630765815,-146.630765815 -6.5781228083,-18.0732438782 190.383427794,16.6563916552 90.3834277941,-156.548689102 21.979399129,31.3898350555 209.917923286,-37.0141936096 36.7128425293,-137.01419361 71.4424780627,59.9473569928 200.0,-93.261531631 2.84217094304e-14,-93.261531631 128.557521937,59.9473569928 163.287157471,-137.01419361 -9.91792328619,-37.0141936096 178.020600871,31.3898350555 109.616572206,-156.548689102 9.61657220585,16.6563916552 206.578122808,-18.0732438782 53.3692341845,-146.630765815 53.3692341845,53.3692341845 206.578122808,-75.1882877528 9.61657220585,-109.917923286 109.616572206,63.2871574707 178.020600871,-124.651366686 -9.91792328619,-56.2473380214 163.287157471,43.7526619786 128.557521937,-153.208888624 5.68434188608e-14,1.13686837722e-13" stroke-linejoin="round"/><polyline fill="none" points="0.0,-0.0 200.0,-0.0 71.4424780627,-153.208888624 36.7128425293,43.7526619786 209.917923286,-56.2473380214 21.979399129,-124.651366686 90.3834277941,63.2871574707 190.383427794,-109.917923286 -6.5781228083,-75.1882877528 146.630765815,53.3692341845 146.630765815,-146.630765815 -6.5781228083,-18.0732438782 190.383427794,16.6563916552 90.3834277941,-156.548689102 21.979399129,31.3898350555 209.917923286,-37.0141936096 36.7128425293,-137.01419361 71.4424780627,59.9473569928 200.0,-93.261531631 2.84217094304e-14,-93.261531631 128.557521937,59.9473569928 163.287157471,-137.01419361 -9.91792328619,-37.0141936096 178.020600871,31.3898350555 109.616572206,-156.548689102 9.61657220585,16.6563916552 206.578122808,-18.0732438782 53.3692341845,-146.630765815 53.3692341845,53.3692341845 206.578122808,-75.1882877528 9.61657220585,-109.917923286 109.616572206,63.2871574707 178.020600871,-124.651366686 -9.91792328619,-56.2473380214 163.287157471,43.7526619786 128.557521937,-153.208888624 5.68434188608e-14,1.13686837722e-13" stroke="#f00" stroke-linecap="round" stroke-linejoin="round"/><line fill="none" stroke="none" stroke-linecap="round" x1="0.0" x2="0.0" y1="0.0" y2="0.0"/><polygon fill="#ffa500" fill-rule="evenodd" points="5.68434188608e-14,1.13686837722e-13 -9.0,-5.0 -7.0,1.23789867246e-13 -9.0,5.0" stroke="#f00" stroke-linejoin="round"/></svg>