<?xml version="1.0" ?><!DOCTYPE svg  PUBLIC '-//W3C//DTD SVG 1.1//EN'  'http://www.w3.org/Graphics/SVG/1.1/DTD/svg11.dtd'><svg height="340.000" viewBox="-45.000 -266.000 340.000 340.000" width="340.000" xmlns="http://www.w3.org/2000/svg"><line fill="none" stroke="#00f" stroke-linecap="round" stroke-width="3.0" x1="0.0" x2="250.0" y1="-0.0" y2="-0.0"/><line fill="none" stroke="#00f" stroke-linecap="round" stroke-width="3.0" x1="250.0" x2="185.337386175" y1="-0.0" y2="-241.492746005"/><line fill="none" stroke="#00f" stroke-linecap="round" stroke-width="3.0" x1="185.337386175" x2="-31.2125848115" y1="-241.492746005" y2="-116.568328593"/><line fill="none" stroke="#00f" stroke-linecap="round" stroke-width="3.0" x1="-31.2125848115" x2="145.471526196" y1="-116.568328593" y2="60.3009025285"/><line fill="none" stroke="#00f" stroke-linecap="round" stroke-width="3.0" x1="145.471526196" x2="270.622645669" y1="60.3009025285" y2="-156.118129201"/><line fill="none" stroke="#00f" stroke-linecap="round" stroke-width="3.0" x1="270.622645669" x2="29.1977465951" y1="-156.118129201" y2="-221.033598137"/><line fill="none" stroke="#00f" stroke-linecap="round" stroke-width="3.0" x1="29.1977465951" x2="28.9359472552" y1="-221.033598137" y2="28.9662647853"/><line fill="none" stroke="#00f" stroke-linecap="round" stroke-width="3.0" x1="28.9359472552" x2="270.496275366" y1="28.9662647853" y2="-35.4434230188"/><line fill="none" stroke="#00f" stroke-linecap="round" stroke-width="3.0" x1="270.496275366" x2="145.798697009" y1="-35.4434230188" y2="-252.124095788"/><line fill="none" stroke="#00f" stroke-linecap="round" stroke-width="3.0" x1="145.798697009" x2="-31.2554602679" y1="-252.124095788" y2="-75.6252986505"/><line fill="none" stroke="#00f" stroke-linecap="round" stroke-width="3.0" x1="-31.2554602679" x2="185.032394875" y1="-75.6252986505" y2="49.7523856393"/><line fill="none" stroke="#00f" stroke-linecap="round" stroke-width="3.0" x1="185.032394875" x2="250.200647734" y1="49.7523856393" y2="-191.604401751"/><line fill="none" stroke="#00f" stroke-linecap="round" stroke-width="3.0" x1="250.200647734" x2="0.201196044811" y1="-191.604401751" y2="-192.128000144"/><line fill="none" stroke="#00f" stroke-linecap="round" stroke-width="3.0" x1="0.201196044811" x2="64.3578871945" y1="-192.128000144" y2="49.4996451719"/><line fill="none" stroke="#00f" stroke-linecap="round" stroke-width="3.0" x1="64.3578871945" x2="281.16902413" y1="49.4996451719" y2="-74.9709573838"/><line fill="none" stroke="#00f" stroke-linecap="round" stroke-width="3.0" x1="281.16902413" x2="104.855734415" y1="-74.9709573838" y2="-252.209846654"/><line fill="none" stroke="#00f" stroke-linecap="round" stroke-width="3.0" x1="104.855734415" x2="-20.7483771998" y1="-252.209846654" y2="-36.0534052846"/><line fill="none" stroke="#00f" stroke-linecap="round" stroke-width="3.0" x1="-20.7483771998" x2="220.540033829" y1="-36.0534052846" y2="29.3675600326"/><line fill="none" stroke="#00f" stroke-linecap="round" stroke-width="3.0" x1="220.540033829" x2="221.325430701" y1="29.3675600326" y2="-220.631206268"/><line fill="none" stroke="#00f" stroke-linecap="round" stroke-width="3.0" x1="221.325430701" x2="-20.3692668451" y1="-220.631206268" y2="-156.727582128"/><line fill="none" stroke="#00f" stroke-linecap="round" stroke-width="3.0" x1="-20.3692668451" x2="103.874223412" y1="-156.727582128" y2="60.2137812139"/><line fill="none" stroke="#00f" stroke-linecap="round" stroke-width="3.0" x1="103.874223412" x2="281.297650311" y1="60.2137812139" y2="-115.91380773"/><line fill="none" stroke="#00f" stroke-linecap="round" stroke-width="3.0" x1="281.297650311" x2="65.2728597571" y1="-115.91380773" y2="-241.744208929"/><line fill="none" stroke="#00f" stroke-linecap="round" stroke-width="3.0" x1="65.2728597571" x2="-0.400746276018" y1="-241.744208929" y2="-0.52443886345"/><line fill="none" stroke="none" stroke-linecap="round" stroke-width="3.0" x1="0.0" x2="0.0" y1="0.0" y2="0.0"/><line fill="none" stroke="none" stroke-linecap="round" stroke-width="2.0" x1="0.0" x2="0.0" y1="0.0" y2="0.0"/><polygon fill="#00f" fill-rule="evenodd" points="-0.400746276018,-0.52443886345 -9.37972342952,-5.5620940002 -7.40068486524,-0.553760309137 -9.42161120907,4.43781827011" stroke="#00f" stroke-linejoin="round"/></svg>