<?xml version="1.0" ?><!DOCTYPE svg  PUBLIC '-//W3C//DTD SVG 1.1//EN'  'http://www.w3.org/Graphics/SVG/1.1/DTD/svg11.dtd'><svg height="84.000" viewBox="-37.000 -19.000 83.000 84.000" width="83.000" xmlns="http://www.w3.org/2000/svg"><line fill="none" stroke="none" stroke-linecap="round" stroke-width="3.0" x1="0.0" x2="0.0" y1="0.0" y2="0.0"/><polyline fill="none" points="0.0,-0.0 8.0,-0.0 15.5175409663,2.73616114661 21.6458965112,7.8784620241 25.6458965112,14.8066652544 27.0350819326,22.6851272785 25.6458965112,30.5635893026 21.6458965112,37.4917925328 15.5175409663,42.6340934103 8.0,45.3702545569 5.3290705182e-15,45.3702545569 -7.51754096629,42.6340934103 -13.6458965112,37.4917925328 -17.6458965112,30.5635893026 -19.0350819326,22.6851272785 -17.6458965112,14.8066652544 -13.6458965112,7.8784620241 -7.51754096629,2.73616114661 -2.30926389122e-14,-4.88498130835e-15" stroke="#f00" stroke-linecap="round" stroke-linejoin="round" stroke-width="3.0"/><polygon fill="#f00" fill-rule="evenodd" points="8.0,-0.0 1.25286712956,-7.77664439386 1.4221516545,-2.39414100328 -2.1673343037,1.620281814" stroke="#f00" stroke-linejoin="round"/><polygon fill="#f00" fill-rule="evenodd" points="15.5175409663,2.73616114661 11.8370790266,-6.87914955617 10.1552298645,-1.7633521212 5.40920292978,0.781294875021" stroke="#f00" stroke-linejoin="round"/><polygon fill="#f00" fill-rule="evenodd" points="21.6458965112,7.8784620241 21.4760235302,-2.41576660996 18.1458965112,1.81628419761 12.8157694923,2.58423339004" stroke="#f00" stroke-linejoin="round"/><polygon fill="#f00" fill-rule="evenodd" points="25.6458965112,14.8066652544 29.0071016773,5.07515458893 24.4303592676,7.91301098329 19.1590241472,6.8116363656" stroke="#f00" stroke-linejoin="round"/><polygon fill="#f00" fill-rule="evenodd" points="27.0350819326,22.6851272785 33.5219542966,14.6900983897 28.2506191762,15.7914730074 23.6738767665,12.953616613" stroke="#f00" stroke-linejoin="round"/><polygon fill="#f00" fill-rule="evenodd" points="25.6458965112,30.5635893026 34.4760235302,25.2693606685 29.1458965112,24.5014114761 25.8157694923,20.2693606685" stroke="#f00" stroke-linejoin="round"/><polygon fill="#f00" fill-rule="evenodd" points="21.6458965112,37.4917925328 31.7542345477,35.5369262613 27.0082076131,32.992279265 25.3263584509,27.8764818301" stroke="#f00" stroke-linejoin="round"/><polygon fill="#f00" fill-rule="evenodd" points="15.5175409663,42.6340934103 25.68487527,44.2543752243 22.0953893118,40.2399524071 22.2646738367,34.8574490165" stroke="#f00" stroke-linejoin="round"/><polygon fill="#f00" fill-rule="evenodd" points="8.0,45.3702545569 17.0,50.3702545569 15.0,45.3702545569 17.0,40.3702545569" stroke="#f00" stroke-linejoin="round"/><polygon fill="#f00" fill-rule="evenodd" points="5.3290705182e-15,45.3702545569 6.74713287044,53.1468989508 6.5778483455,47.7643955602 10.1673343037,43.7499727429" stroke="#f00" stroke-linejoin="round"/><polygon fill="#f00" fill-rule="evenodd" points="-7.51754096629,42.6340934103 -3.83707902665,52.2494041131 -2.15522986445,47.1336066781 2.59079707022,44.5889596819" stroke="#f00" stroke-linejoin="round"/><polygon fill="#f00" fill-rule="evenodd" points="-13.6458965112,37.4917925328 -13.4760235302,47.7860211669 -10.1458965112,43.5539703593 -4.81576949232,42.7860211669" stroke="#f00" stroke-linejoin="round"/><polygon fill="#f00" fill-rule="evenodd" points="-17.6458965112,30.5635893026 -21.0071016773,40.295099968 -16.4303592676,37.4572435737 -11.1590241472,38.5586181913" stroke="#f00" stroke-linejoin="round"/><polygon fill="#f00" fill-rule="evenodd" points="-19.0350819326,22.6851272785 -25.5219542966,30.6801561672 -20.2506191762,29.5787815496 -15.6738767665,32.4166379439" stroke="#f00" stroke-linejoin="round"/><polygon fill="#f00" fill-rule="evenodd" points="-17.6458965112,14.8066652544 -26.4760235302,20.1008938884 -21.1458965112,20.8688430809 -17.8157694923,25.1008938884" stroke="#f00" stroke-linejoin="round"/><polygon fill="#f00" fill-rule="evenodd" points="-13.6458965112,7.8784620241 -23.7542345477,9.83332829568 -19.0082076131,12.3779752919 -17.3263584509,17.4937727269" stroke="#f00" stroke-linejoin="round"/><polygon fill="#f00" fill-rule="evenodd" points="-7.51754096629,2.73616114661 -17.68487527,1.11587933261 -14.0953893118,5.13030214989 -14.2646738367,10.5128055405" stroke="#f00" stroke-linejoin="round"/><polygon fill="#f00" fill-rule="evenodd" points="-2.30926389122e-14,-4.88498130835e-15 -9.0,-5.0 -7.0,1.33226762955e-15 -9.0,5.0" stroke="#f00" stroke-linejoin="round"/><polygon fill="#f00" fill-rule="evenodd" points="-2.30926389122e-14,-4.88498130835e-15 -9.0,-5.0 -7.0,1.33226762955e-15 -9.0,5.0" stroke="#f00" stroke-linejoin="round"/></svg>