<?xml version="1.0" ?><!DOCTYPE svg  PUBLIC '-//W3C//DTD SVG 1.1//EN'  'http://www.w3.org/Graphics/SVG/1.1/DTD/svg11.dtd'><svg height="114.000" viewBox="-29.000 -25.000 107.000 114.000" width="107.000" xmlns="http://www.w3.org/2000/svg"><polyline fill="none" points="0.0,-0.0 50.6,-0.0 65.899916472,48.2314477903 24.5523846162,77.3989229885 -15.7520292358,46.8062077765 1.22182019355,-0.861899334559 51.7909960407,0.904015198588 65.3983389639,49.6400410785 23.0580647028,77.3467401873 -16.1541264256,45.3660574724 2.47297594024,-1.68063271351 52.9497168834,1.84904485794 64.8479078064,51.0302714872 21.5664762423,77.2424381615 -16.5057181479,43.9127514795 3.75194289951,-2.45520263636 54.0747508051,2.83393760498 64.2492936151,52.4004452347 20.0794365053,77.0861439871 -16.8063760422,42.4480604271 5.05716284714,-3.18466540896 55.1647271255,3.85749349962 63.6032257093,53.7488929754 18.5987572208,76.8780480846 -17.0557338034,40.9737688158 6.38704557366,-3.86813229329 56.2183178761,4.91846549665 62.9104912231,55.0739718334 17.1262423683,76.6184039866 -17.2534876273,39.4916728427 7.73997082184,-4.50477059023 57.234239419,6.01556096514 62.1719341468,56.3740674042 15.6636859805,76.3075280295 -17.3993965814,38.0035782135 9.11429026066,-5.09380465409 58.2112540102,7.14744326325 61.3884542984,57.6475957217 14.2128699569,75.9457989679 -17.4932828981,36.5112979423 10.5083294936,-5.63451683759 59.1481713081,8.31273336675 60.5610062275,58.8930051878" stroke="#ff69b4" stroke-linecap="round" stroke-linejoin="round"/><polyline fill="none" points="60.5610062275,58.8930051878 12.7755618934,75.5336575128 -17.5350321914,35.0166501428 11.9203900985,-6.12624836622 60.0438498231,9.51001154915 59.690598052,60.1087784628 11.3535129286,75.0716057951 -17.5245935962,33.5214558129 13.3487516972,-6.56840014086" stroke="#ff69b4" stroke-linecap="round" stroke-linejoin="round"/><line fill="none" stroke="none" stroke-linecap="round" x1="0.0" x2="0.0" y1="0.0" y2="0.0"/><polygon fill="#ff69b4" fill-rule="evenodd" points="13.3487516972,-6.56840014086 6.60161882671,-14.3450445347 6.77090335165,-8.96254114414 3.18141739345,-4.94811832686" stroke="#ff69b4" stroke-linejoin="round"/></svg>